<svg width="15" height="16" viewBox="0 0 15 16" fill="none" xmlns="http://www.w3.org/2000/svg">
<path fill-rule="evenodd" clip-rule="evenodd" d="M2.12474 0.124695C1.65171 0.124695 1.19802 0.302726 0.863337 0.619132C0.528947 0.935257 0.340332 1.36641 0.340332 1.81388V14.1875C0.340332 14.6349 0.528947 15.0661 0.863337 15.3822C1.19802 15.6986 1.65171 15.8767 2.12474 15.8767H12.8359C13.3092 15.8767 13.7653 15.6986 14.0997 15.3822C14.4344 15.0661 14.6203 14.6349 14.6203 14.1875V1.81388C14.6203 1.36641 14.4344 0.935257 14.0997 0.619132C13.7653 0.302726 13.3092 0.124695 12.8359 0.124695H2.12474ZM2.12474 1.25082H12.8359C12.9948 1.25082 13.1453 1.30988 13.2572 1.41563C13.3687 1.5211 13.4315 1.66341 13.4315 1.81388V14.1875C13.4315 14.3379 13.3687 14.4803 13.2572 14.5857C13.1456 14.6915 12.9948 14.7505 12.8359 14.7505H2.12474C1.96587 14.7505 1.81772 14.6915 1.70586 14.5857C1.59429 14.4803 1.53152 14.3379 1.53152 14.1875V1.81388C1.53152 1.66341 1.59429 1.5211 1.70586 1.41563C1.81772 1.30988 1.96587 1.25082 2.12474 1.25082Z" fill="#3156C8"/>
</svg>
